<svg width="486" height="94" viewBox="0 0 486 94" fill="none" xmlns="http://www.w3.org/2000/svg">
<rect width="486" height="94" rx="10" fill="#F6F5F4"/>
<rect x="14" y="12" width="71" height="71" rx="7" fill="white"/>
<path d="M97 15.5H295" stroke="black" stroke-opacity="0.5" stroke-width="2" stroke-linecap="round"/>
<path d="M97 62H205" stroke="black" stroke-opacity="0.5" stroke-width="2" stroke-linecap="round"/>
<path d="M97 53H205" stroke="black" stroke-opacity="0.5" stroke-width="2" stroke-linecap="round"/>
<path d="M97 24.5H295" stroke="black" stroke-opacity="0.5" stroke-width="2" stroke-linecap="round"/>
<path d="M97 71H205" stroke="black" stroke-opacity="0.5" stroke-width="2" stroke-linecap="round"/>
<path d="M391.305 71.168C390.957 71.168 390.609 71.142 390.261 71.09C389.913 71.038 389.591 70.972 389.295 70.892C388.999 70.808 388.753 70.72 388.557 70.628L388.713 69.416C388.929 69.52 389.189 69.628 389.493 69.74C389.801 69.852 390.133 69.946 390.489 70.022C390.845 70.098 391.205 70.136 391.569 70.136C392.109 70.136 392.537 70.038 392.853 69.842C393.173 69.642 393.333 69.332 393.333 68.912C393.333 68.596 393.253 68.338 393.093 68.138C392.933 67.934 392.691 67.76 392.367 67.616C392.047 67.472 391.645 67.328 391.161 67.184C390.701 67.048 390.277 66.888 389.889 66.704C389.501 66.516 389.189 66.266 388.953 65.954C388.721 65.638 388.605 65.22 388.605 64.7C388.605 64.256 388.719 63.864 388.947 63.524C389.179 63.18 389.517 62.912 389.961 62.72C390.409 62.528 390.957 62.432 391.605 62.432C392.157 62.432 392.663 62.492 393.123 62.612C393.587 62.732 393.969 62.864 394.269 63.008L394.149 64.22C393.693 63.948 393.257 63.754 392.841 63.638C392.429 63.522 392.001 63.464 391.557 63.464C391.065 63.464 390.657 63.556 390.333 63.74C390.013 63.924 389.853 64.224 389.853 64.64C389.853 64.92 389.925 65.15 390.069 65.33C390.213 65.506 390.427 65.658 390.711 65.786C390.995 65.91 391.349 66.036 391.773 66.164C392.357 66.34 392.859 66.542 393.279 66.77C393.699 66.994 394.021 67.272 394.245 67.604C394.469 67.932 394.581 68.34 394.581 68.828C394.581 69.188 394.513 69.512 394.377 69.8C394.241 70.088 394.037 70.334 393.765 70.538C393.493 70.742 393.151 70.898 392.739 71.006C392.331 71.114 391.853 71.168 391.305 71.168ZM398.505 71.12C397.813 71.12 397.231 70.978 396.759 70.694C396.287 70.41 395.929 70.034 395.685 69.566C395.445 69.094 395.325 68.576 395.325 68.012C395.325 67.464 395.437 66.962 395.661 66.506C395.889 66.05 396.217 65.686 396.645 65.414C397.077 65.138 397.597 65 398.205 65C398.693 65 399.127 65.098 399.507 65.294C399.891 65.486 400.191 65.768 400.407 66.14C400.627 66.508 400.737 66.956 400.737 67.484C400.737 67.568 400.733 67.66 400.725 67.76C400.721 67.856 400.709 67.956 400.689 68.06H396.429C396.481 68.604 396.611 69.028 396.819 69.332C397.027 69.636 397.289 69.85 397.605 69.974C397.921 70.098 398.265 70.16 398.637 70.16C398.909 70.16 399.193 70.132 399.489 70.076C399.785 70.02 400.065 69.932 400.329 69.812L400.473 70.664C400.245 70.764 399.967 70.866 399.639 70.97C399.311 71.07 398.933 71.12 398.505 71.12ZM396.525 67.316H399.621C399.621 67.04 399.569 66.8 399.465 66.596C399.361 66.392 399.203 66.236 398.991 66.128C398.779 66.016 398.509 65.96 398.181 65.96C397.701 65.96 397.331 66.08 397.071 66.32C396.815 66.556 396.633 66.888 396.525 67.316ZM403.338 71.12C402.958 71.12 402.656 71.052 402.432 70.916C402.212 70.776 402.054 70.598 401.958 70.382C401.862 70.166 401.814 69.94 401.814 69.704V62H402.894V69.08C402.894 69.416 402.916 69.668 402.96 69.836C403.004 70.004 403.092 70.116 403.224 70.172C403.36 70.228 403.566 70.256 403.842 70.256L403.686 71.12H403.338ZM407.423 71.12C406.731 71.12 406.149 70.978 405.677 70.694C405.205 70.41 404.847 70.034 404.603 69.566C404.363 69.094 404.243 68.576 404.243 68.012C404.243 67.464 404.355 66.962 404.579 66.506C404.807 66.05 405.135 65.686 405.563 65.414C405.995 65.138 406.515 65 407.123 65C407.611 65 408.045 65.098 408.425 65.294C408.809 65.486 409.109 65.768 409.325 66.14C409.545 66.508 409.655 66.956 409.655 67.484C409.655 67.568 409.651 67.66 409.643 67.76C409.639 67.856 409.627 67.956 409.607 68.06H405.347C405.399 68.604 405.529 69.028 405.737 69.332C405.945 69.636 406.207 69.85 406.523 69.974C406.839 70.098 407.183 70.16 407.555 70.16C407.827 70.16 408.111 70.132 408.407 70.076C408.703 70.02 408.983 69.932 409.247 69.812L409.391 70.664C409.163 70.764 408.885 70.866 408.557 70.97C408.229 71.07 407.851 71.12 407.423 71.12ZM405.443 67.316H408.539C408.539 67.04 408.487 66.8 408.383 66.596C408.279 66.392 408.121 66.236 407.909 66.128C407.697 66.016 407.427 65.96 407.099 65.96C406.619 65.96 406.249 66.08 405.989 66.32C405.733 66.556 405.551 66.888 405.443 67.316ZM413.444 71.12C412.78 71.12 412.222 70.986 411.77 70.718C411.322 70.446 410.982 70.082 410.75 69.626C410.522 69.166 410.408 68.656 410.408 68.096C410.408 67.512 410.518 66.986 410.738 66.518C410.962 66.05 411.304 65.68 411.764 65.408C412.224 65.136 412.812 65 413.528 65C413.836 65 414.126 65.032 414.398 65.096C414.674 65.156 414.92 65.24 415.136 65.348L414.968 66.296C414.748 66.192 414.514 66.11 414.266 66.05C414.022 65.99 413.768 65.96 413.504 65.96C412.856 65.96 412.362 66.144 412.022 66.512C411.682 66.88 411.512 67.392 411.512 68.048C411.512 68.688 411.674 69.202 411.998 69.59C412.322 69.978 412.816 70.172 413.48 70.172C413.752 70.172 414.012 70.14 414.26 70.076C414.512 70.012 414.752 69.924 414.98 69.812L415.124 70.676C414.964 70.788 414.73 70.89 414.422 70.982C414.114 71.074 413.788 71.12 413.444 71.12ZM418.221 71.12C417.849 71.12 417.551 71.052 417.327 70.916C417.103 70.78 416.939 70.606 416.835 70.394C416.735 70.178 416.685 69.952 416.685 69.716V65.96H415.677L415.773 65.12H416.685V63.668L417.765 63.56V65.12H419.313V65.96H417.765V69.056C417.765 69.432 417.787 69.704 417.831 69.872C417.875 70.04 417.983 70.146 418.155 70.19C418.331 70.234 418.613 70.256 419.001 70.256H419.277L419.193 71.12H418.221ZM424.299 71.12C423.935 71.12 423.617 71.046 423.345 70.898C423.073 70.75 422.861 70.548 422.709 70.292C422.561 70.036 422.487 69.744 422.487 69.416C422.487 69.084 422.559 68.8 422.703 68.564C422.851 68.324 423.047 68.126 423.291 67.97C423.539 67.81 423.815 67.684 424.119 67.592C424.423 67.496 424.737 67.428 425.061 67.388C425.389 67.344 425.703 67.32 426.003 67.316C426.003 66.756 425.893 66.39 425.673 66.218C425.453 66.046 425.135 65.96 424.719 65.96C424.499 65.96 424.263 65.994 424.011 66.062C423.763 66.13 423.483 66.272 423.171 66.488L423.015 65.612C423.251 65.432 423.545 65.286 423.897 65.174C424.249 65.058 424.619 65 425.007 65C425.503 65 425.903 65.088 426.207 65.264C426.511 65.436 426.733 65.728 426.873 66.14C427.013 66.552 427.083 67.112 427.083 67.82V69.02C427.083 69.3 427.095 69.532 427.119 69.716C427.147 69.896 427.207 70.032 427.299 70.124C427.395 70.212 427.547 70.256 427.755 70.256H427.863L427.695 71.12H427.611C427.263 71.12 426.993 71.086 426.801 71.018C426.613 70.95 426.469 70.852 426.369 70.724C426.269 70.596 426.179 70.44 426.099 70.256C425.879 70.512 425.619 70.72 425.319 70.88C425.019 71.04 424.679 71.12 424.299 71.12ZM424.503 70.256C424.791 70.256 425.069 70.184 425.337 70.04C425.609 69.896 425.831 69.704 426.003 69.464V68.06C425.431 68.08 424.967 68.136 424.611 68.228C424.259 68.32 424.001 68.458 423.837 68.642C423.673 68.826 423.591 69.064 423.591 69.356C423.591 69.672 423.675 69.902 423.843 70.046C424.015 70.186 424.235 70.256 424.503 70.256ZM428.697 71V65.12H429.537L429.753 66.248L429.333 66.068C429.729 65.628 430.115 65.34 430.491 65.204C430.871 65.068 431.241 65 431.601 65C432.461 65 433.075 65.248 433.443 65.744C433.815 66.24 434.001 66.912 434.001 67.76V71H432.921V67.76C432.921 67.136 432.805 66.68 432.573 66.392C432.341 66.104 431.945 65.96 431.385 65.96C430.989 65.96 430.625 66.048 430.293 66.224C429.965 66.396 429.749 66.672 429.645 67.052L429.777 66.392V71H428.697ZM441.983 71.168C441.183 71.168 440.471 70.99 439.847 70.634C439.223 70.274 438.733 69.768 438.377 69.116C438.021 68.46 437.843 67.688 437.843 66.8C437.843 65.912 438.021 65.142 438.377 64.49C438.733 63.834 439.223 63.328 439.847 62.972C440.471 62.612 441.183 62.432 441.983 62.432C442.783 62.432 443.495 62.612 444.119 62.972C444.743 63.328 445.233 63.834 445.589 64.49C445.945 65.142 446.123 65.912 446.123 66.8C446.123 67.688 445.945 68.46 445.589 69.116C445.233 69.768 444.743 70.274 444.119 70.634C443.495 70.99 442.783 71.168 441.983 71.168ZM441.983 70.064C442.627 70.064 443.165 69.92 443.597 69.632C444.029 69.34 444.353 68.948 444.569 68.456C444.789 67.96 444.899 67.408 444.899 66.8C444.899 66.192 444.789 65.642 444.569 65.15C444.353 64.654 444.029 64.262 443.597 63.974C443.165 63.682 442.627 63.536 441.983 63.536C441.339 63.536 440.801 63.682 440.369 63.974C439.937 64.262 439.611 64.654 439.391 65.15C439.175 65.642 439.067 66.192 439.067 66.8C439.067 67.408 439.175 67.96 439.391 68.456C439.611 68.948 439.937 69.34 440.369 69.632C440.801 69.92 441.339 70.064 441.983 70.064ZM447.248 73.904V65.12H448.088L448.28 66.464L447.98 66.248C448.228 65.864 448.534 65.56 448.898 65.336C449.262 65.112 449.708 65 450.236 65C450.772 65 451.232 65.136 451.616 65.408C452 65.68 452.294 66.048 452.498 66.512C452.702 66.972 452.804 67.488 452.804 68.06C452.804 68.632 452.708 69.15 452.516 69.614C452.324 70.074 452.038 70.44 451.658 70.712C451.278 70.984 450.804 71.12 450.236 71.12C449.768 71.12 449.344 71.024 448.964 70.832C448.588 70.636 448.316 70.344 448.148 69.956L448.328 69.74V73.904H447.248ZM450.032 70.16C450.556 70.16 450.964 69.976 451.256 69.608C451.552 69.236 451.7 68.72 451.7 68.06C451.7 67.4 451.552 66.886 451.256 66.518C450.964 66.146 450.556 65.96 450.032 65.96C449.708 65.96 449.412 66.038 449.144 66.194C448.88 66.346 448.668 66.578 448.508 66.89C448.348 67.198 448.268 67.588 448.268 68.06C448.268 68.552 448.348 68.952 448.508 69.26C448.668 69.568 448.88 69.796 449.144 69.944C449.412 70.088 449.708 70.16 450.032 70.16ZM455.873 71.12C455.501 71.12 455.203 71.052 454.979 70.916C454.755 70.78 454.591 70.606 454.487 70.394C454.387 70.178 454.337 69.952 454.337 69.716V65.96H453.329L453.425 65.12H454.337V63.668L455.417 63.56V65.12H456.965V65.96H455.417V69.056C455.417 69.432 455.439 69.704 455.483 69.872C455.527 70.04 455.635 70.146 455.807 70.19C455.983 70.234 456.265 70.256 456.653 70.256H456.929L456.845 71.12H455.873ZM457.888 71V65.12H458.968V71H457.888ZM457.888 63.8V62.6H458.968V63.8H457.888ZM462.999 71.12C462.383 71.12 461.857 70.984 461.421 70.712C460.989 70.436 460.657 70.068 460.425 69.608C460.197 69.144 460.083 68.628 460.083 68.06C460.083 67.492 460.197 66.978 460.425 66.518C460.657 66.054 460.989 65.686 461.421 65.414C461.857 65.138 462.383 65 462.999 65C463.611 65 464.135 65.138 464.571 65.414C465.007 65.686 465.339 66.054 465.567 66.518C465.799 66.978 465.915 67.492 465.915 68.06C465.915 68.628 465.799 69.144 465.567 69.608C465.339 70.068 465.007 70.436 464.571 70.712C464.135 70.984 463.611 71.12 462.999 71.12ZM462.999 70.16C463.583 70.16 464.031 69.976 464.343 69.608C464.655 69.236 464.811 68.72 464.811 68.06C464.811 67.4 464.655 66.886 464.343 66.518C464.031 66.146 463.583 65.96 462.999 65.96C462.419 65.96 461.971 66.146 461.655 66.518C461.343 66.886 461.187 67.4 461.187 68.06C461.187 68.72 461.343 69.236 461.655 69.608C461.971 69.976 462.419 70.16 462.999 70.16ZM467.029 71V65.12H467.869L468.085 66.248L467.665 66.068C468.061 65.628 468.447 65.34 468.823 65.204C469.203 65.068 469.573 65 469.933 65C470.793 65 471.407 65.248 471.775 65.744C472.147 66.24 472.333 66.912 472.333 67.76V71H471.253V67.76C471.253 67.136 471.137 66.68 470.905 66.392C470.673 66.104 470.277 65.96 469.717 65.96C469.321 65.96 468.957 66.048 468.625 66.224C468.297 66.396 468.081 66.672 467.977 67.052L468.109 66.392V71H467.029Z" fill="black" fill-opacity="0.5"/>
</svg>
